<?xml version="1.0" standalone="no"?>
<!DOCTYPE svg PUBLIC "-//W3C//DTD SVG 20010904//EN"
 "http://www.w3.org/TR/2001/REC-SVG-20010904/DTD/svg10.dtd">
<svg version="1.0" xmlns="http://www.w3.org/2000/svg"
 width="2000.000000pt" height="2000.000000pt" viewBox="0 0 2000.000000 2000.000000"
 preserveAspectRatio="xMidYMid meet">
<metadata>
Created by potrace 1.11, written by Peter Selinger 2001-2013
</metadata>
<g transform="translate(0.000000,2000.000000) scale(0.100000,-0.100000)"
fill="#000000" stroke="none">
<path d="M0 10000 l0 -10000 10000 0 10000 0 0 10000 0 10000 -10000 0 -10000
0 0 -10000z m14615 2411 c411 -62 790 -226 1057 -455 67 -58 188 -190 188
-206 0 -3 -181 -167 -401 -364 l-402 -359 -20 29 c-76 110 -277 266 -415 323
-256 106 -621 106 -917 1 -488 -174 -879 -629 -1025 -1194 -48 -186 -63 -325
-57 -526 4 -152 9 -190 35 -292 52 -201 139 -363 270 -500 152 -159 358 -267
592 -309 109 -20 382 -18 492 4 268 53 509 182 715 381 l104 100 24 -30 c13
-16 149 -177 303 -359 l280 -330 -71 -73 c-360 -369 -824 -595 -1392 -679
-186 -27 -621 -24 -813 5 -720 112 -1233 470 -1512 1055 -150 314 -209 624
-197 1037 10 322 57 591 158 885 359 1055 1244 1766 2334 1875 147 14 521 4
670 -19z m3765 4 c279 -44 555 -140 765 -266 163 -98 371 -288 343 -315 -7 -6
-174 -154 -371 -327 l-358 -316 -72 76 c-142 149 -311 235 -527 268 -123 19
-214 19 -331 -1 -174 -30 -288 -85 -393 -191 -103 -103 -146 -203 -146 -344 0
-136 45 -233 147 -314 80 -63 284 -162 498 -240 208 -77 502 -218 625 -300
341 -230 522 -500 570 -853 18 -130 7 -408 -20 -527 -42 -186 -95 -311 -190
-453 -160 -236 -356 -402 -635 -537 -200 -97 -420 -160 -700 -202 -167 -24
-551 -24 -720 1 -434 63 -804 206 -1087 418 -86 65 -226 200 -265 254 l-22 31
402 328 402 327 25 -33 c145 -193 385 -339 674 -410 233 -57 552 -24 731 76
122 68 207 169 245 292 25 80 27 235 5 309 -56 191 -251 327 -695 489 -413
150 -595 247 -761 403 -43 41 -102 104 -129 140 -67 88 -154 267 -180 369 -60
241 -47 555 34 796 103 307 343 594 653 780 240 145 585 255 898 286 130 14
461 5 585 -14z m-15271 -1527 c139 -783 260 -1460 269 -1505 11 -64 18 -83 31
-83 11 1 251 453 791 1491 426 820 780 1497 785 1505 8 12 134 14 816 12 l805
-3 -397 -2250 c-219 -1237 -403 -2280 -409 -2317 l-12 -68 -534 0 -534 0 5 23
c6 24 605 3287 605 3294 0 46 -159 -238 -932 -1659 l-900 -1658 -384 0 c-244
0 -384 4 -384 10 0 5 -135 738 -300 1627 -165 890 -303 1633 -306 1651 -5 23
-11 32 -22 30 -13 -2 -67 -307 -288 -1628 -150 -894 -276 -1640 -279 -1657
l-6 -33 -510 0 -511 0 6 28 c3 15 186 1046 406 2292 220 1246 402 2277 406
2293 l6 27 761 0 762 0 254 -1422z m7444 -890 c241 -1272 437 -2316 437 -2320
0 -5 -256 -8 -569 -8 l-569 0 -5 23 c-3 12 -38 211 -77 442 -39 231 -73 428
-76 438 -5 16 -56 17 -902 17 l-897 -1 -276 -457 -276 -457 -622 -3 -622 -2
23 38 c13 21 678 1065 1478 2320 l1455 2282 530 0 530 0 438 -2312z"/>
<path d="M9232 10943 c-348 -589 -862 -1463 -862 -1468 0 -3 272 -5 605 -5
333 0 605 1 605 3 0 16 -241 1632 -244 1635 -2 2 -49 -72 -104 -165z"/>
</g>
</svg>
